<svg xmlns="http://www.w3.org/2000/svg" viewBox="0 0 246.37 258.2"><defs><style>.cls-1{fill:#231f20;}.cls-2,.cls-3{fill:none;stroke:#231f20;}.cls-2{stroke-linecap:round;stroke-linejoin:round;stroke-width:15px;}.cls-3{stroke-miterlimit:10;stroke-width:7px;}</style></defs><g id="Layer_3" data-name="Layer 3"><path class="cls-1" d="M226.92,477.84a12.21,12.21,0,0,1,12.16-12.27l31.75-.13c16.64-.07,23.62-18.71,23.51-43.69-.12-27.77-7.47-45.5-23.88-45.43l-31.76.13a12.22,12.22,0,0,1-12.27-12.16h0A12.22,12.22,0,0,1,238.6,352l31.09-.13c22.81-.1,32.31,30.12,32.48,70.66.16,38.31-8.42,67.22-31.45,67.32l-31.54.13a12.2,12.2,0,0,1-12.26-12.16Z" transform="translate(-174.44 -292.27)"/><path class="cls-2" d="M368.81,503.58c0-94.86-103.88-80.41-103.88-80.41v-3.61S368.81,434,368.81,339.15" transform="translate(-174.44 -292.27)"/></g><g id="Layer_2" data-name="Layer 2"><rect class="cls-3" x="3.5" y="3.5" width="239.37" height="251.2" rx="36.45"/></g></svg>